<?xml version="1.0" encoding="UTF-8"?>
<!DOCTYPE svg
PUBLIC "-//W3C//DTD SVG 1.1//EN"
       "http://www.w3.org/Graphics/SVG/1.1/DTD/svg11.dtd">
<svg viewBox="178 58 1160 502" width="982px" height="444px" xmlns="http://www.w3.org/2000/svg" version="1.1">
   <line x1="664" y1="283" x2="674" y2="283" style="stroke:#0bf;stroke-width:1;"/>
   <line x1="1022" y1="103" x2="1032" y2="103" style="stroke:#0bf;stroke-width:1;"/>
   <line x1="674" y1="283" x2="1022" y2="103" style="stroke:#0bf;stroke-width:1;"/>
   <line x1="671.5" y1="283" x2="667.96446609407" y2="286.53553390593" style="stroke:#0bf;stroke-width:2;"/>
   <line x1="671.5" y1="283" x2="667.96446609407" y2="279.46446609407" style="stroke:#0bf;stroke-width:2;"/>
   <line x1="1027" y1="103" x2="1023.4644660941" y2="106.53553390593" style="stroke:#0bf;stroke-width:2;"/>
   <line x1="1027" y1="103" x2="1023.4644660941" y2="99.464466094067" style="stroke:#0bf;stroke-width:2;"/>
   <line x1="578" y1="303" x2="568" y2="303" style="stroke:#b0b;stroke-width:1;"/>
   <line x1="542" y1="437" x2="532" y2="437" style="stroke:#b0b;stroke-width:1;"/>
   <line x1="568" y1="303" x2="542" y2="437" style="stroke:#b0b;stroke-width:1;"/>
   <line x1="570.5" y1="303" x2="574.03553390593" y2="306.53553390593" style="stroke:#b0b;stroke-width:2;"/>
   <line x1="570.5" y1="303" x2="574.03553390593" y2="299.46446609407" style="stroke:#b0b;stroke-width:2;"/>
   <line x1="537" y1="437" x2="540.53553390593" y2="440.53553390593" style="stroke:#b0b;stroke-width:2;"/>
   <line x1="537" y1="437" x2="540.53553390593" y2="433.46446609407" style="stroke:#b0b;stroke-width:2;"/>
   <line x1="271" y1="299" x2="281" y2="299" style="stroke:#0bf;stroke-width:1;"/>
   <line x1="444" y1="437" x2="454" y2="437" style="stroke:#0bf;stroke-width:1;"/>
   <line x1="281" y1="299" x2="444" y2="437" style="stroke:#0bf;stroke-width:1;"/>
   <line x1="278.5" y1="299" x2="274.96446609407" y2="302.53553390593" style="stroke:#0bf;stroke-width:2;"/>
   <line x1="278.5" y1="299" x2="274.96446609407" y2="295.46446609407" style="stroke:#0bf;stroke-width:2;"/>
   <line x1="449" y1="437" x2="445.46446609407" y2="440.53553390593" style="stroke:#0bf;stroke-width:2;"/>
   <line x1="449" y1="437" x2="445.46446609407" y2="433.46446609407" style="stroke:#0bf;stroke-width:2;"/>
   <rect width="78" height="20" x="454" y="407" style="fill:#007;stroke:black;"/>
   <text width="78" height="20" x="459" y="421" style="fill:#fff;" font-family="Arial" font-size="16px"> difficultes</text>
   <rect width="78" height="20" x="454" y="427" style="fill:#aea;stroke:black;"/>
   <text width="78" height="20" x="459" y="441" style="fill:black;" font-family="Arial" font-size="16px">id</text>
   <rect width="78" height="20" x="454" y="447" style="fill:none;stroke:black;"/>
   <text width="78" height="20" x="459" y="461" style="fill:black;" font-family="Arial" font-size="16px">classe</text>
   <rect width="78" height="20" x="454" y="467" style="fill:none;stroke:black;"/>
   <text width="78" height="20" x="459" y="481" style="fill:black;" font-family="Arial" font-size="16px">niveau</text>
   <rect width="86" height="20" x="578" y="173" style="fill:#007;stroke:black;"/>
   <text width="86" height="20" x="583" y="187" style="fill:#fff;" font-family="Arial" font-size="16px"> exos</text>
   <rect width="86" height="20" x="578" y="193" style="fill:#aea;stroke:black;"/>
   <text width="86" height="20" x="583" y="207" style="fill:black;" font-family="Arial" font-size="16px">id</text>
   <rect width="86" height="20" x="578" y="213" style="fill:none;stroke:black;"/>
   <text width="86" height="20" x="583" y="227" style="fill:black;" font-family="Arial" font-size="16px">titre</text>
   <rect width="86" height="20" x="578" y="233" style="fill:none;stroke:black;"/>
   <text width="86" height="20" x="583" y="247" style="fill:black;" font-family="Arial" font-size="16px">enonce</text>
   <rect width="86" height="20" x="578" y="253" style="fill:none;stroke:black;"/>
   <text width="86" height="20" x="583" y="267" style="fill:black;" font-family="Arial" font-size="16px">url_img</text>
   <rect width="86" height="20" x="578" y="273" style="fill:none;stroke:black;"/>
   <text width="86" height="20" x="583" y="287" style="fill:black;" font-family="Arial" font-size="16px">id_info</text>
   <rect width="86" height="20" x="578" y="293" style="fill:none;stroke:black;"/>
   <text width="86" height="20" x="583" y="307" style="fill:black;" font-family="Arial" font-size="16px">id_difficulte</text>
   <rect width="113" height="20" x="1032" y="73" style="fill:#007;stroke:black;"/>
   <text width="113" height="20" x="1037" y="87" style="fill:#fff;" font-family="Arial" font-size="16px"> infos</text>
   <rect width="113" height="20" x="1032" y="93" style="fill:#aea;stroke:black;"/>
   <text width="113" height="20" x="1037" y="107" style="fill:black;" font-family="Arial" font-size="16px">id</text>
   <rect width="113" height="20" x="1032" y="113" style="fill:none;stroke:black;"/>
   <text width="113" height="20" x="1037" y="127" style="fill:black;" font-family="Arial" font-size="16px">auteur</text>
   <rect width="113" height="20" x="1032" y="133" style="fill:none;stroke:black;"/>
   <text width="113" height="20" x="1037" y="147" style="fill:black;" font-family="Arial" font-size="16px">codecapacite</text>
   <rect width="113" height="20" x="1032" y="153" style="fill:none;stroke:black;"/>
   <text width="113" height="20" x="1037" y="167" style="fill:black;" font-family="Arial" font-size="16px">fichetechnique</text>
   <rect width="113" height="20" x="1032" y="173" style="fill:none;stroke:black;"/>
   <text width="113" height="20" x="1037" y="187" style="fill:black;" font-family="Arial" font-size="16px">etape</text>
   <rect width="113" height="20" x="1032" y="193" style="fill:none;stroke:black;"/>
   <text width="113" height="20" x="1037" y="207" style="fill:black;" font-family="Arial" font-size="16px">secteur</text>
   <rect width="113" height="20" x="1032" y="213" style="fill:none;stroke:black;"/>
   <text width="113" height="20" x="1037" y="227" style="fill:black;" font-family="Arial" font-size="16px">codenaf</text>
   <rect width="78" height="20" x="193" y="169" style="fill:#007;stroke:black;"/>
   <text width="78" height="20" x="198" y="183" style="fill:#fff;" font-family="Arial" font-size="16px"> users</text>
   <rect width="78" height="20" x="193" y="189" style="fill:#aea;stroke:black;"/>
   <text width="78" height="20" x="198" y="203" style="fill:black;" font-family="Arial" font-size="16px">id</text>
   <rect width="78" height="20" x="193" y="209" style="fill:none;stroke:black;"/>
   <text width="78" height="20" x="198" y="223" style="fill:black;" font-family="Arial" font-size="16px">pseudo</text>
   <rect width="78" height="20" x="193" y="229" style="fill:none;stroke:black;"/>
   <text width="78" height="20" x="198" y="243" style="fill:black;" font-family="Arial" font-size="16px">nom</text>
   <rect width="78" height="20" x="193" y="249" style="fill:none;stroke:black;"/>
   <text width="78" height="20" x="198" y="263" style="fill:black;" font-family="Arial" font-size="16px">prenom</text>
   <rect width="78" height="20" x="193" y="269" style="fill:none;stroke:black;"/>
   <text width="78" height="20" x="198" y="283" style="fill:black;" font-family="Arial" font-size="16px">password</text>
   <rect width="78" height="20" x="193" y="289" style="fill:none;stroke:black;"/>
   <text width="78" height="20" x="198" y="303" style="fill:black;" font-family="Arial" font-size="16px">classe</text>
   <rect width="78" height="20" x="193" y="309" style="fill:none;stroke:black;"/>
   <text width="78" height="20" x="198" y="323" style="fill:black;" font-family="Arial" font-size="16px">mail</text>
</svg>
